<?xml version="1.0" encoding="utf-8"?>
<!-- Svg Vector Icons : http://www.onlinewebfonts.com/icon -->
<!DOCTYPE svg PUBLIC "-//W3C//DTD SVG 1.1//EN" "http://www.w3.org/Graphics/SVG/1.1/DTD/svg11.dtd">
<svg version="1.1" xmlns="http://www.w3.org/2000/svg" xmlns:xlink="http://www.w3.org/1999/xlink" x="0px" y="0px" viewBox="0 0 1000 1000" enable-background="new 0 0 1000 1000" xml:space="preserve">
<metadata> Svg Vector Icons : http://www.onlinewebfonts.com/icon </metadata>
<g><path d="M898.1,836.7H622.9L500,959.6L377.1,836.7H101.9c-50.8,0-91.9-41.1-91.9-91.9V132.3c0-50.8,41.1-91.9,91.9-91.9h796.2c50.7,0,91.9,41.1,91.9,91.9v612.5C990,795.6,948.8,836.7,898.1,836.7z M928.8,162.9c0-33.8-27.4-61.3-61.3-61.3h-735c-33.8,0-61.3,27.4-61.3,61.3v551.3c0,33.8,27.4,61.3,61.3,61.3h275.2l92.3,92.3l92.2-92.3h275.3c33.8,0,61.3-27.4,61.3-61.3L928.8,162.9L928.8,162.9z M775.6,346.7H224.4c-16.9,0-30.6-13.7-30.6-30.6c0-16.9,13.7-30.7,30.6-30.7h551.3c16.9,0,30.6,13.7,30.6,30.7C806.3,333,792.5,346.7,775.6,346.7z M346.9,469.2h306.2c16.9,0,30.6,13.7,30.6,30.6c0,16.9-13.7,30.6-30.6,30.6H346.9c-16.9,0-30.6-13.7-30.6-30.6C316.3,482.9,329.9,469.2,346.9,469.2z"/></g>
</svg>