<?xml version="1.0" encoding="utf-8"?>
<!-- Svg Vector Icons : http://www.onlinewebfonts.com/icon -->
<!DOCTYPE svg PUBLIC "-//W3C//DTD SVG 1.1//EN" "http://www.w3.org/Graphics/SVG/1.1/DTD/svg11.dtd">
<svg version="1.1" xmlns="http://www.w3.org/2000/svg" xmlns:xlink="http://www.w3.org/1999/xlink" x="0px" y="0px" viewBox="0 0 1000 1000" enable-background="new 0 0 1000 1000" xml:space="preserve">
<metadata> Svg Vector Icons : http://www.onlinewebfonts.com/icon </metadata>
<g><path d="M728.7,990V728.7h98v-196h-294v196h98V990H369.4V728.7h98v-196h-294v196h98V990H10V728.7h98V467.3h359.3v-196h-98V10h261.3v261.3h-98v196H892v261.3h98V990H728.7L728.7,990z M75.4,794v130.6h130.7V794H75.4z M565.4,206V75.3H434.7V206H565.4z M434.7,794v130.6h130.7V794H434.7z M924.7,794H794.1v130.6h130.7V794z"/></g>
</svg>